# xmcd
#
# Track frame offsets: 
#        151
#        22131
#        40097
#        59043
#        81784
#        96247
#        120931
#        136287
#        156002
#        173777
#        197194
#        219232
#        232854
#        256175
#
# Disc length: 3637 seconds
#
# Revision: 0
# Processed by: cddbd v1.4PL0 Copyright (c) Steve Scherf et al.
# Submitted via: ExactAudioCopy v0.90b4
#
DISCID=b60e330e
DTITLE=PADRAIG MOR - THE GREEN AND THE GOLD
DYEAR=2002
DGENRE=Celtic
TTITLE0=BALLAD OF MARTIN (DOCO) DOCHERTY
TTITLE1=KELLY THE BOY FROM KILLANE
TTITLE2=GRACE
TTITLE3=CLONOE AMBUSH
TTITLE4=IRELAND UNFREE
TTITLE5=SONG FOR MARCELLA
TTITLE6=CROSSMAGLEN
TTITLE7=BOSTON SNOWS
TTITLE8=HELICOPTER SONG
TTITLE9=ATHENRY/GARVAGHY ROAD
TTITLE10=SHOOT TO KILL THE POLICY
TTITLE11=PARDON ME FOR SMILING
TTITLE12=DYING REBEL
TTITLE13=BALLAD OF RAYMOND MC.CREESH
EXTD=
EXTT0=BALLAD OF MARTIN (DOCO) DOCHERTY
EXTT1=
EXTT2=
EXTT3=
EXTT4=
EXTT5=
EXTT6=
EXTT7=
EXTT8=
EXTT9=
EXTT10=
EXTT11=
EXTT12=
EXTT13=
PLAYORDER=
